<?xml version="1.0" encoding="utf-8"?>
<!-- Generator: Adobe Illustrator 23.0.1, SVG Export Plug-In . SVG Version: 6.00 Build 0)  -->
<svg version="1.1" id="レイヤー_1" xmlns="http://www.w3.org/2000/svg" xmlns:xlink="http://www.w3.org/1999/xlink" x="0px"
	 y="0px" viewBox="0 0 320.14 275.04" style="enable-background:new 0 0 320.14 275.04;" xml:space="preserve">
<style type="text/css">
	.st0{fill:none;stroke:#000000;stroke-width:6;stroke-miterlimit:10;}
	.st1{enable-background:new    ;}
	.st2{fill:none;stroke:#000000;stroke-width:6;stroke-linecap:square;stroke-miterlimit:10;}
</style>
<path class="st0" d="M47.58,132.05"/>
<g class="st1">
	<path d="M115.59,137.88c-1.47-0.78-3.1-1.39-4.79-1.01c-1.79,0.39-2.77,1.86-2.37,3.65c1.16,5.28,10.32,3.16,12.2,11.7
		c1.16,5.28-1.09,10.15-6.64,11.37c-1.88,0.41-3.83,0.31-5.62-0.4l-1.27-5.78c1.58,0.62,3.16,1.04,4.86,0.66
		c2.07-0.45,3.3-2.07,2.83-4.19c-0.12-0.55-0.32-1.04-0.66-1.49c-0.8-1.03-2.72-1.66-3.89-2.13c-3.97-1.63-6.66-3.35-7.64-7.8
		c-1.06-4.82,0.81-9.66,5.99-10.8c2.07-0.45,3.68-0.33,5.69,0.29L115.59,137.88z"/>
	<path d="M139.76,131.16l5.51,25.01l-6.06,1.33l-5.51-25.01l-4.73,1.04l-1.23-5.6l15.51-3.42l1.23,5.6L139.76,131.16z"/>
	<path d="M174.65,149.71l-2.28-4.89l-6.1,1.34l0.03,5.38l-6.06,1.33l0.42-32.19l6.33-1.4l14.09,28.99L174.65,149.71z M170.41,140.29
		c-1.29-2.8-2.57-5.54-3.69-8.43c-0.48-1.29-0.96-2.63-1.39-3.93c0.67,4.38,0.74,8.84,0.81,13.3L170.41,140.29z"/>
	<path d="M205.77,142.85l-8.47-12.91l3.1,14.09l-6.06,1.34l-6.74-30.61l6.56-1.45c2.25-0.5,4.77-0.86,6.98,0
		c2.79,1.07,4.64,3.79,5.26,6.64c0.77,3.49-0.06,6.27-2.64,8.76l8.39,12.73L205.77,142.85z M196.56,126.59
		c0.33-0.02,0.7-0.1,1.02-0.17c2.62-0.58,3.51-2.65,2.96-5.13c-0.55-2.48-2.02-3.93-4.68-3.35l-1.15,0.25L196.56,126.59z"/>
	<path d="M228.72,111.57l5.51,25.01l-6.06,1.33l-5.51-25.01l-4.73,1.04l-1.23-5.6l15.51-3.42l1.23,5.6L228.72,111.57z"/>
</g>
<path class="st2" d="M43.03,114.82c9.95,5.61,19.9,11.21,29.85,16.82l4.55-2.45c8.72-4.46,17.44-8.91,26.16-13.37
	c15.86-8.1,31.72-16.21,47.58-24.31c17.83-9.11,35.65-18.22,53.48-27.33c14.31-7.31,28.63-14.63,42.94-21.94
	c5.36-2.74,10.71-5.47,16.07-8.21c-4.65,15.42-9.99,38.85-9.82,67.86c0.07,10.82,0.11,18.46,2.23,28.89
	c7.64,37.65,33.45,68.37,33.45,68.38l0,0L83.48,174.18l-3.99-0.55l-28.25,28.25l-0.75-0.76c-3.14-3.99-7.26-9.9-10.87-17.67
	c-3.24-6.98-8.38-18.38-8.03-33.38C31.98,133.3,39.02,120.82,43.03,114.82z"/>
<path class="st2" d="M267.44,32.2c9.35,18.72,19.98,44.8,26.41,77.19c7.45,37.57,3.76,67.76,1.32,90.37"/>
<path class="st2" d="M274.6,131.79"/>
<polygon points="269.06,28.86 268.02,29.34 267.65,28.64 268.74,28.05 "/>
<polygon points="297.94,202.05 297.83,203.2 293.64,202.68 293.64,201.44 "/>
</svg>
